<?xml version="1.0" encoding="iso-8859-1"?>
<!-- Generator: Adobe Illustrator 18.0.0, SVG Export Plug-In . SVG Version: 6.00 Build 0)  -->
<!DOCTYPE svg PUBLIC "-//W3C//DTD SVG 1.1//EN" "http://www.w3.org/Graphics/SVG/1.1/DTD/svg11.dtd">
<svg version="1.1" id="Capa_1" xmlns="http://www.w3.org/2000/svg" xmlns:xlink="http://www.w3.org/1999/xlink" x="0px" y="0px"
	 viewBox="0 0 429.896 429.896" style="enable-background:new 0 0 429.896 429.896;" xml:space="preserve">
<g>
	<path d="M315.138,129.72c3.839,0,7.678-1.465,10.606-4.394l14.884-14.884c0.014-0.014,0.028-0.027,0.041-0.041l30.975-30.975
		c5.857-5.857,5.857-15.355,0-21.213c-5.857-5.857-15.355-5.857-21.213,0l-45.899,45.899c-5.858,5.857-5.858,15.355,0,21.213
		C307.46,128.255,311.299,129.72,315.138,129.72z"/>
	<path d="M325.472,304.531c-5.857-5.857-15.355-5.857-21.213,0c-5.858,5.857-5.858,15.355,0,21.213l14.882,14.882
		c0.014,0.015,0.029,0.029,0.043,0.043l30.974,30.974c2.929,2.929,6.768,4.394,10.606,4.394s7.678-1.465,10.606-4.394
		c5.858-5.857,5.858-15.355,0-21.213L325.472,304.531z"/>
	<path d="M103.84,304.259l-45.898,45.899c-5.857,5.857-5.857,15.355,0,21.213c2.929,2.929,6.768,4.394,10.606,4.394
		s7.678-1.465,10.606-4.394l30.974-30.975c0.015-0.015,0.029-0.028,0.043-0.043l14.882-14.882c5.857-5.857,5.857-15.355,0-21.213
		C119.196,298.401,109.698,298.401,103.84,304.259z"/>
	<path d="M89.188,110.129c0.02,0.02,0.039,0.038,0.058,0.058l14.867,14.867c2.93,2.93,6.768,4.394,10.607,4.394
		c3.838,0,7.678-1.465,10.606-4.394c5.858-5.857,5.858-15.355,0-21.213L79.428,57.941c-5.859-5.858-15.355-5.858-21.213,0
		c-5.858,5.857-5.858,15.354,0,21.213L89.188,110.129z"/>
	<path d="M414.896,199.948h-80.888c-6.789-54.197-49.862-97.271-104.06-104.059V15c0-8.284-6.716-15-15-15s-15,6.716-15,15v80.889
		c-54.197,6.789-97.271,49.862-104.06,104.059H15c-8.284,0-15,6.716-15,15s6.716,15,15,15h80.888
		c6.789,54.197,49.862,97.271,104.06,104.059v80.889c0,8.284,6.716,15,15,15s15-6.716,15-15v-80.889
		c54.197-6.789,97.271-49.862,104.06-104.059h80.888c8.284,0,15-6.716,15-15S423.181,199.948,414.896,199.948z M214.948,304.943
		c-49.624,0-89.996-40.372-89.996-89.995s40.372-89.995,89.996-89.995s89.996,40.372,89.996,89.995S264.572,304.943,214.948,304.943
		z"/>
</g>
<g>
</g>
<g>
</g>
<g>
</g>
<g>
</g>
<g>
</g>
<g>
</g>
<g>
</g>
<g>
</g>
<g>
</g>
<g>
</g>
<g>
</g>
<g>
</g>
<g>
</g>
<g>
</g>
<g>
</g>
</svg>
