<?xml version="1.0" encoding="iso-8859-1"?>
<!-- Generator: Adobe Illustrator 18.0.0, SVG Export Plug-In . SVG Version: 6.00 Build 0)  -->
<!DOCTYPE svg PUBLIC "-//W3C//DTD SVG 1.1//EN" "http://www.w3.org/Graphics/SVG/1.1/DTD/svg11.dtd">
<svg version="1.1" id="Capa_1" xmlns="http://www.w3.org/2000/svg" xmlns:xlink="http://www.w3.org/1999/xlink" x="0px" y="0px"
	 viewBox="0 0 472.404 472.404" style="enable-background:new 0 0 472.404 472.404;" xml:space="preserve">
<g>
	<path d="M407.203,171.001C407.203,76.711,330.492,0,236.202,0S65.201,76.711,65.201,171.001
		c0,88.382,67.399,161.318,153.499,170.112v37.269h-24.11c-28.235,0-51.207,22.971-51.207,51.206v27.816c0,8.284,6.716,15,15,15
		h155.638c8.284,0,15-6.716,15-15v-27.816c0-28.235-22.971-51.206-51.207-51.206H248.7v-36.839
		C337.177,335.121,407.203,261.088,407.203,171.001z M236.202,30c77.748,0,141.001,63.253,141.001,141.001
		S313.95,312.002,236.202,312.002S95.201,248.749,95.201,171.001S158.454,30,236.202,30z M299.021,429.588v12.816H173.383v-12.816
		c0-11.693,9.513-21.206,21.207-21.206h83.225C289.508,408.382,299.021,417.895,299.021,429.588z"/>
	<path d="M164.194,205.466l43.159-8.188c-6.32-6.935-10.174-16.155-10.174-26.277c0-10.122,3.854-19.343,10.174-26.277
		l-43.159-8.188c-11.087-2.104-21.353,6.398-21.353,17.683v33.564C142.841,199.068,153.107,207.569,164.194,205.466z"/>
	<path d="M275.226,171.001c0,10.122-3.854,19.342-10.174,26.277l43.159,8.188c11.087,2.104,21.353-6.397,21.353-17.683v-33.564
		c0-11.285-10.266-19.786-21.353-17.683l-43.159,8.188C271.371,151.659,275.226,160.879,275.226,171.001z"/>
	<path d="M210.315,136.885c0.258,1.362,0.681,2.656,1.219,3.882c6.723-5.492,15.31-8.79,24.668-8.79s17.945,3.297,24.668,8.79
		c0.539-1.226,0.961-2.519,1.22-3.882l8.577-45.211c2.103-11.087-6.398-21.353-17.683-21.353H219.42
		c-11.285,0-19.786,10.266-17.683,21.353L210.315,136.885z"/>
	<path d="M262.09,205.117c-0.258-1.362-0.681-2.656-1.219-3.882c-6.723,5.492-15.31,8.79-24.668,8.79s-17.945-3.298-24.668-8.79
		c-0.539,1.226-0.961,2.519-1.22,3.882l-8.577,45.211c-2.103,11.087,6.398,21.353,17.683,21.353h33.564
		c11.285,0,19.786-10.266,17.683-21.353L262.09,205.117z"/>
	<circle cx="236.202" cy="171.001" r="25.888"/>
</g>
<g>
</g>
<g>
</g>
<g>
</g>
<g>
</g>
<g>
</g>
<g>
</g>
<g>
</g>
<g>
</g>
<g>
</g>
<g>
</g>
<g>
</g>
<g>
</g>
<g>
</g>
<g>
</g>
<g>
</g>
</svg>
